<?xml version="1.0" encoding="UTF-8"?>
<svg id="Layer_1" data-name="Layer 1" xmlns="http://www.w3.org/2000/svg" viewBox="0 0 130.95 151.54">
  <defs>
    <style>
      .cls-1 {
        fill: #03a9f4;
      }
    </style>
  </defs>
  <g>
    <g>
      <path class="cls-1" d="M21.96,126.89c-13.01-15.74-16.73-34.88-12.53-54.29-.26-.09-.14-.31-.26-.31-2.78.11-5.41.36-8.16.84,5.18-8.36,11.52-15.94,18.18-23.16,1.08,9.45,3.28,18.51,6.32,27.57.05.14-.55.24-.5-.06-2.92-1.49-5.91-2.77-9.19-3.86-.83,7.61.06,15.44,3.08,22.7,2.74,6.56,7.66,13.92,14.73,15.41,8.79,1.85,17.19-5.35,21.52-12.3l31.05-49.91,2.95,1.76,5.83,3.38,2.07,1.14-27.55,51.61c-3.63,6.8-5.71,16.38-1.39,23.24,4.42,7.02,14.15,7.82,22.07,6.86,7.78-1.06,15.05-4.15,21.19-8.72-2.67-2.4-5.33-4.3-8.43-6.36,9.44-1.93,18.43-4.54,27.21-8.36-2.31,7.62-4.94,14.7-8.1,21.66l-2.83,5.71c-1.05-2.81-2.15-5.3-3.52-7.84-14.63,13.51-33.35,19.88-53.21,16.57l-12.69-1.65c-4.72-.32-9.36-.2-14.04.9-2.69-8.78-8.12-15.48-13.81-22.52Z"/>
      <path class="cls-1" d="M21.58,127.21c-12.7-14.91-17.03-35.77-12.63-54.71,0,0,.33.58.33.58-.09-.03-.2-.08-.31-.19-.15-.13-.18-.32-.21-.4.03.1.13.23.27.28.23.05.14.02.12.03h-.07s-.54.03-.54.03c-2.86.13-5.74.47-8.55,1,5.32-8.77,11.9-16.69,18.82-24.19,0,0,.74-.8.74-.8.93,8.75,2.85,17.38,5.51,25.77.24.79.7,2.13.93,2.87.08,1-1.65.9-1.49-.07,0,0,.27.52.27.52-2.94-1.5-5.99-2.79-9.12-3.83l.66-.42c-.58,5.34-.3,10.79.96,16.01,4.38,17.76,17.94,30.59,33.61,14.45,3.26-3.35,6.49-9.43,9.07-13.38,5.5-8.85,20.15-32.38,25.82-41.5,0,0,.26-.42.26-.42,0,0,.42.25.42.25,3.72,2.22,7.46,4.43,11.27,6.5,0,0-.23.44-.23.44-7.17,13.33-19.84,37.22-26.86,50.31-3.8,6.81-6.29,15.52-2.74,22.89,5.29,9.96,19.5,8.99,28.84,6.34,5.15-1.53,10.02-3.99,14.33-7.19,0,0-.04.77-.04.77-2.88-2.6-6.11-4.84-9.37-6.98,10.05-1.98,19.94-4.82,29.29-9,0,0-.32,1.04-.32,1.04-2.94,9.82-6.75,19.38-11.46,28.48,0,0-.41-1.09-.41-1.09-.99-2.67-2.14-5.28-3.5-7.78l.78.13c-13.62,12.78-32.8,19.72-51.44,17-1.63-.24-6.17-.81-7.87-1.04-6.97-1.1-14.42-1.69-21.31.09-2.5-8.69-8.23-15.88-13.85-22.8h0ZM22.35,126.58c5.59,6.88,11.3,14.05,13.9,22.69,0,0-.59-.34-.59-.34,6.89-1.7,14.27-1.09,21.21,0,1.69.21,6.23.82,7.87,1.04,18.36,2.68,37.22-4.16,50.64-16.74,0,0,.48-.43.48-.43,1.5,2.72,2.78,5.56,3.85,8.46,0,0-.92-.05-.92-.05,4.52-8.72,8.05-17.89,10.89-27.28,0,0,.68.6.68.6-8.76,3.82-17.98,6.5-27.31,8.39l.18-.91c3.11,2.06,6.17,4.27,8.94,6.82-4.53,3.44-9.67,6.09-15.14,7.71-9.84,2.79-24.44,3.65-30.02-6.85-3.72-7.68-1.2-16.76,2.75-23.82,6.98-13,19.77-37.09,26.86-50.31,0,0,.2.67.2.67-3.67-2.02-7.27-4.14-10.86-6.28,0,0,.68-.17.68-.17-5.77,9.27-20.27,32.57-25.82,41.5-2.65,4.07-5.82,10.06-9.19,13.54-16.25,16.71-30.78,3.69-35.32-14.9-1.33-5.55-1.58-11.32-.91-16.97,3.38,1.1,6.68,2.47,9.85,4.09,0,0,.27.52.27.52.01-.04,0-.13-.05-.23-.06-.1-.13-.13-.17-.14-.06-.02-.04-.01-.04-.01,0,0,0,0-.03.01-.02.01-.04.02-.09.07-.03.04-.14.19-.11.37.03.13,0,.04.01.05,0,0,0-.03,0-.03-.66-2.02-1.37-4.2-1.95-6.24-2.03-6.99-3.55-14.15-4.37-21.39,0,0,.86.28.86.28-6.65,7.21-12.96,14.76-18.12,23.08l-.51-.76c2.5-.44,5.04-.7,7.58-.82.41,0,1.06-.18,1.22.39,0,0,.02.08.02.08.01-.03-.14-.19-.14-.16,0,0,.33.58.33.58-4.33,18.69-.09,39.16,12.43,53.87h0Z"/>
    </g>
    <g>
      <path class="cls-1" d="M92.7,40.58c.38.13,8.92,5.37,9.34,5.35.22-.03.04-.3-.15-.38,0,0-9.95-5.66-9.95-5.66,3.77-4.49,8.74-19.71,16.55-13.98,4.33,6.16-3.83,14.53-6.03,20.23,5.71,3.49,11.26,7.11,16.2,11.42.45.6-2.78,5.04-2.94,5.62-6.86-.74-13.84-5.77-20.37-8.73-8.67-4.86-17.42-10.25-24.91-16.74,0-.18.28-.33.02-.52.56-.53,2.66-5.74,3.65-5.49,6.38,2.56,12.53,5.35,18.59,8.88Z"/>
      <path class="cls-1" d="M92.91,40.13c2.89,1.62,5.72,3.42,8.59,5,.19.11.43.22.56.28-.04-.01-.01,0-.11.03-.04,0-.17.05-.26.22-.09.19-.03.33.01.36,0,0-.27-.66-.27-.66-3.53-1.79-6.87-3.32-10.25-5.32,0,0,.37-.47.37-.47,3.74-4.78,5.47-11.47,10.97-14.77,2-1.15,4.6-.64,6.33.76,1.22,1.62,1.59,3.79,1.27,5.72-.92,5.61-5.11,10.04-7.2,15.05,0,0-.21-.61-.21-.61,5.67,3.46,11.29,7.11,16.33,11.52.33.64.08.84-.05,1.29-.63,1.45-1.66,2.87-2.47,4.22-.06.1-.3.5-.32.57,0,0-.54.37-.54.37-7.6-.98-13.8-5.76-20.56-8.79-8.81-4.95-17.5-10.29-25.18-16.96,0,0,.01-.2.01-.2.02-.4.19-.5.15-.48-.01,0-.04.17.01.26.05.09.06.09.06.09l-.05-.77c.18-.19.58-1.02.74-1.32.52-.89,1.05-2.16,1.64-2.99.46-.58.78-1.39,1.73-1.3,6.4,2.54,12.77,5.47,18.67,8.91h0ZM92.49,41.04c-6-3.49-12.18-6.31-18.57-8.87l.06.02c.13.02.1-.02.03.04-.06.05-.15.12-.22.21-1.24,1.51-1.83,3.52-2.99,5.11,0,0-.05-.77-.05-.77.08.06.17.12.26.3.1.19.06.45,0,.55-.11.2-.1.25-.07.06,0,0-.17-.36-.17-.36,7.49,6.49,16.28,11.89,24.79,16.67,6.69,2.99,12.86,7.73,20.22,8.69,0,0-.54.37-.54.37.2-.55.59-1.03.87-1.52.67-1.17,1.65-2.43,2.08-3.7.04-.07-.04-.19.08.03l.07.08c-4.95-4.32-10.5-7.93-16.13-11.37l-.37-.22.16-.38c2.25-6.02,10.09-13.29,6.09-19.76-7.55-4.86-11.76,9.32-15.76,14.01,0,0-.14-.76-.14-.76,3.02,1.66,7.21,4.39,10.16,6.29,0,0-.27-.66-.27-.66.87.35.67,1.62-.35,1.27-3.08-1.55-6.27-3.67-9.24-5.32h0Z"/>
    </g>
    <g>
      <path class="cls-1" d="M70.83,35.77c-.4.73-.92,1.34-.75,2.07-2.23,1.09-5.05.62-6.92-1.13-1.75-1.63-2.45-4.16-1.75-6.59.96-3.32,4.34-5.4,7.81-4.57,2.73.65,4.67,3.08,4.72,5.79-.56.11-.87.38-1.08.77l-2.03,3.67Z"/>
      <path class="cls-1" d="M71.26,36.02c-.53.9-.93,1.37-.59,2.09-4.19,2.43-9.85-.81-10.02-5.59-.43-9.22,13.02-10.57,13.78-1.18,0,0,0,.41,0,.41l-.41.09c-.37.08-.57.21-.74.53l-.67,1.22-1.35,2.43h0ZM70.39,35.53l1.35-2.43c.48-.85.96-2.14,2.11-2.25,0,0-.41.5-.41.5-.01-2.52-1.98-4.84-4.45-5.33-5.56-1.28-9.63,5.54-5.94,9.85,1.6,1.94,4.57,2.63,6.81,1.52l-.27.56c-.22-.96.41-1.71.8-2.42h0Z"/>
    </g>
    <g>
      <path class="cls-1" d="M116.09,63.48l3.03-5.17c.14-.24-.1-.67-.12-1.04,1.81-.93,3.85-.86,5.52-.06,1.84.88,3.07,2.54,3.46,4.58.42,2.25-.27,4.47-2.02,6.1-1.46,1.36-3.73,2.07-5.9,1.55-2.59-.62-4.5-2.74-4.8-5.44.32-.22.66-.25.83-.54Z"/>
      <path class="cls-1" d="M115.66,63.22c.72-1.22,2.2-3.75,2.9-4.95,0,0,.11-.19.11-.19.03-.06,0,0,0,.01.01,0-.13-.41-.17-.81,0,0-.03-.31-.03-.31,0,0,.3-.16.3-.16,6.1-3.05,12.18,3.79,8.96,9.63-3.16,5.84-12.23,4.35-12.96-2.38,0,0-.03-.31-.03-.31l.25-.15c.4-.25.73-.35.68-.38h0ZM116.52,63.73c-.26.44-.67.5-.97.7,0,0,.21-.47.21-.47.63,5.76,8.39,7,11.09,2,2.76-4.94-2.44-10.88-7.63-8.25,0,0,.27-.47.27-.47-.02.12.26.73.13,1.14-.75,1.42-2.3,3.93-3.11,5.35h0Z"/>
    </g>
  </g>
  <path class="cls-1" d="M97.41,24.21c-2.56-4.18-2.16-8.87-.69-13.18C99.07,4.62,105.25.38,111.9.03c12.12-.78,19.64,11.67,16.57,22.67-1.12,4.28-4.21,8.26-8.34,10.06-2.12,1.03-4.75,1.52-7.03,1.09-4.38-.8-7.35-2.9-10.89-5.1-1.61-1.12-3.37-2.39-4.79-4.55h0ZM102.81,20.73c1.07,1.74,4.47,3.7,7.29,5.28,1.41.75,2.8,1.33,3.99,1.5,1.1.2,1.94-.02,2.91-.38,2.68-1.06,4.52-3.34,5.27-6.13,2.36-8.89-4.87-17.67-14.04-13.56-3.29,1.52-5.5,4.39-6.04,7.85-.38,1.78-.29,4.06.61,5.44h0Z"/>
</svg>